<svg width="1706" height="548" viewBox="0 0 1706 548" fill="none" xmlns="http://www.w3.org/2000/svg">
<path d="M138.831 43.9637C120.599 43.9637 102.546 47.5547 85.7026 54.5316C68.8588 61.5085 53.5542 71.7347 40.6626 84.6263C27.771 97.518 17.5448 112.823 10.5679 129.666C3.59096 146.51 -2.75288e-06 164.563 0 182.795L138.831 182.795V43.9637Z" fill="black"/>
<path d="M138.831 182.795C120.599 182.795 102.546 186.385 85.7026 193.362C68.8588 200.339 53.5542 210.565 40.6626 223.456C27.771 236.348 17.5448 251.653 10.5679 268.496C3.59096 285.34 -2.75288e-06 303.393 0 321.625H138.831V182.795Z" fill="black"/>
<path d="M304.657 498.249C322.888 498.249 340.941 494.658 357.785 487.681C374.629 480.704 389.933 470.478 402.825 457.586C415.717 444.695 425.943 429.39 432.92 412.546C439.897 395.703 443.488 377.65 443.488 359.418H304.657V498.249Z" fill="black"/>
<path d="M304.657 359.418C322.888 359.418 340.941 355.828 357.785 348.851C374.629 341.874 389.933 331.648 402.825 318.756C415.717 305.865 425.943 290.56 432.92 273.716C439.897 256.873 443.488 238.82 443.488 220.588L304.657 220.588V359.418Z" fill="black"/>
<path d="M277.662 43.9637C259.43 43.9637 241.377 47.5547 224.534 54.5316C207.69 61.5085 192.385 71.7347 179.494 84.6263C166.602 97.518 156.376 112.823 149.399 129.666C142.422 146.51 138.831 164.563 138.831 182.795H277.662V43.9637Z" fill="black"/>
<path d="M443.489 0C425.257 -2.17409e-07 407.204 3.59097 390.36 10.5679C373.517 17.5448 358.212 27.771 345.32 40.6626C332.429 53.5543 322.203 68.8589 315.226 85.7026C308.249 102.546 304.657 207.754 304.657 225.986L443.487 225.986L443.489 0Z" fill="black"/>
<path d="M165.826 498.249C184.057 498.249 202.11 494.658 218.954 487.681C235.798 480.704 251.102 470.478 263.994 457.586C276.886 444.695 287.112 429.39 294.089 412.546C301.066 395.703 304.657 377.65 304.657 359.418H165.826V498.249Z" fill="black"/>
<path d="M0.00038866 539.126C18.2319 539.126 36.2849 535.535 53.1286 528.558C69.9724 521.581 85.277 511.355 98.1686 498.464C111.06 485.572 121.286 470.267 128.263 453.424C135.24 436.58 138.831 336 138.831 317.768L0.000248742 317.768L0.00038866 539.126Z" fill="black"/>
<path d="M749.536 187.441C763.756 221.103 775.944 234.742 801.48 234.742V240.836C741.411 240.836 702.235 236.193 687.145 189.472C671.765 141.3 663.35 133.465 636.942 133.465H632.88V176.123C632.88 206.013 633.75 219.942 636.362 240.836H569.328C571.94 219.942 572.81 206.013 572.81 176.123V73.396C572.81 43.5064 571.94 29.5773 569.328 8.68359H650.581C708.619 8.68359 760.273 18.55 760.273 71.0745C760.273 114.893 724.58 128.822 679.02 132.595C709.49 137.818 734.446 152.328 749.536 187.441ZM632.88 15.6482V126.501H649.711C677.279 126.501 699.914 114.893 699.914 71.0745C699.914 27.2557 677.279 15.6482 649.711 15.6482H632.88Z" fill="black"/>
<path d="M984.341 240.836H821.544C824.156 219.942 825.317 206.013 825.317 176.123V73.396C825.317 43.5064 824.156 29.5773 821.544 8.68359H990.725L971.863 35.9615C948.357 18.5501 927.173 15.6482 909.182 15.6482H885.096V115.474H899.025C914.405 115.474 930.075 115.474 957.063 112.572V125.34C930.075 122.438 914.405 122.438 899.025 122.438H885.096V233.871H906.86C938.201 233.871 954.161 231.84 996.239 214.428L984.341 240.836Z" fill="black"/>
<path d="M1136.01 90.8074L1225.1 209.495C1234.97 222.554 1241.64 229.809 1256.15 240.836H1169.09C1164.16 229.518 1160.68 224.875 1149.36 209.495L1091.61 133.175L1082.62 143.042V176.123C1082.62 206.013 1083.49 219.942 1086.1 240.836H1019.07C1021.68 219.942 1022.55 206.013 1022.55 176.123V73.396C1022.55 43.5064 1021.68 29.5773 1019.07 8.68359H1086.1C1083.49 29.5773 1082.62 43.5064 1082.62 73.396V133.175L1177.22 39.4438C1189.7 27.546 1196.95 20.001 1204.79 8.68359H1221.62C1206.24 20.001 1198.4 27.546 1187.09 38.8634L1136.01 90.8074Z" fill="black"/>
<path d="M1402.31 8.68359L1455.7 204.272C1460.05 220.813 1463.54 229.228 1469.92 240.836H1398.53C1397.66 225.456 1395.92 219.071 1391.86 204.272L1379.38 158.712H1303.64L1290.58 208.044C1287.68 219.071 1285.07 226.616 1284.2 240.836H1271.43C1278.68 225.746 1280.43 219.071 1283.33 208.334L1330.63 32.189C1332.95 22.9029 1333.82 18.2599 1330.92 8.68359H1402.31ZM1341.08 19.1304L1305.67 151.747H1377.35L1341.08 19.1304Z" fill="black"/>
<path d="M749.536 487.928C763.756 521.59 775.944 535.229 801.48 535.229V541.323C741.411 541.323 702.235 536.68 687.145 489.96C671.765 441.788 663.35 433.953 636.942 433.953H632.88V476.611C632.88 506.5 633.75 520.429 636.362 541.323H569.328C571.94 520.429 572.81 506.5 572.81 476.611V373.883C572.81 343.994 571.94 330.065 569.328 309.171H650.581C708.619 309.171 760.273 319.037 760.273 371.562C760.273 415.381 724.58 429.31 679.02 433.082C709.49 438.306 734.446 452.815 749.536 487.928ZM632.88 316.136V426.988H649.711C677.279 426.988 699.914 415.381 699.914 371.562C699.914 327.743 677.279 316.136 649.711 316.136H632.88Z" fill="black"/>
<path d="M913.092 547.127C850.411 547.127 804.271 526.523 804.271 442.658V373.883C804.271 343.994 803.4 330.065 800.789 309.171H867.823C865.211 330.065 864.34 343.994 864.34 373.883V442.658C864.34 509.402 877.979 535.519 923.829 535.519C965.907 535.519 986.801 512.304 986.801 442.658V373.883C986.801 343.994 985.64 330.065 983.318 309.171H997.247C994.926 330.065 993.765 343.994 993.765 373.883V442.658C993.765 518.688 969.389 547.127 913.092 547.127Z" fill="black"/>
<path d="M1138.47 309.171L1191.87 504.759C1196.22 521.3 1199.7 529.716 1206.08 541.323H1134.7C1133.83 525.943 1132.09 519.559 1128.02 504.759L1115.55 459.199H1039.81L1026.75 508.532C1023.85 519.559 1021.23 527.104 1020.36 541.323H1007.59C1014.85 526.233 1016.59 519.559 1019.49 508.822L1066.79 332.676C1069.11 323.39 1069.99 318.747 1067.08 309.171H1138.47ZM1077.24 319.618L1041.84 452.235H1113.51L1077.24 319.618Z" fill="black"/>
<path d="M1244.1 541.323H1231.04C1233.65 520.429 1234.52 506.5 1234.52 476.611V373.883C1234.52 343.994 1233.65 330.065 1231.04 309.171H1303.59L1416.47 526.524L1418.5 526.814V373.883C1418.5 343.994 1417.34 330.065 1415.02 309.171H1428.08C1425.47 330.065 1424.6 343.994 1424.6 373.883V476.611C1424.6 506.5 1425.47 520.429 1428.08 541.323H1355.53L1242.65 323.971L1240.62 323.681V476.611C1240.62 506.5 1241.49 520.429 1244.1 541.323Z" fill="black"/>
<path d="M1576.16 547.127C1504.77 547.127 1454.57 497.795 1454.57 422.345C1454.57 346.896 1511.73 303.367 1580.51 303.367C1632.74 303.367 1667.57 330.935 1687.59 369.531L1632.74 384.911C1626.94 343.413 1612.14 310.332 1580.51 310.332C1539.88 310.332 1518.99 358.503 1518.99 418.283C1518.99 480.093 1543.95 529.425 1595.6 529.425C1640.87 529.425 1668.44 491.12 1671.63 431.631H1657.12C1639.13 431.631 1617.94 434.533 1594.73 451.945L1575.58 424.667H1705.58V431.631H1682.66V476.901C1682.66 499.246 1683.82 519.559 1686.72 541.323H1667.57C1670.47 519.559 1671.63 499.246 1671.63 476.901V468.776C1660.31 516.077 1631.58 547.127 1576.16 547.127Z" fill="black"/>
</svg>
