<svg width="218" height="265" viewBox="0 0 218 265" fill="none" xmlns="http://www.w3.org/2000/svg">
<path d="M68.2181 21.6027C59.2595 21.6027 50.3887 23.3672 42.1121 26.7955C33.8355 30.2238 26.3152 35.2487 19.9806 41.5833C13.646 47.9179 8.62107 55.4382 5.19279 63.7148C1.76451 71.9914 -1.3527e-06 80.8622 0 89.8208L68.2181 89.8208V21.6027Z" fill="black"/>
<path d="M68.2181 89.8208C59.2595 89.8208 50.3887 91.5849 42.1121 95.0132C33.8355 98.4415 26.3152 103.466 19.9806 109.801C13.646 116.136 8.62107 123.656 5.19279 131.933C1.76451 140.209 -1.3527e-06 149.08 0 158.038H68.2181V89.8208Z" fill="black"/>
<path d="M149.701 244.827C158.659 244.827 167.53 243.063 175.807 239.634C184.083 236.206 191.604 231.181 197.938 224.847C204.273 218.512 209.298 210.992 212.726 202.715C216.154 194.439 217.919 185.568 217.919 176.609H149.701V244.827Z" fill="black"/>
<path d="M149.701 176.609C158.659 176.609 167.53 174.845 175.807 171.417C184.083 167.988 191.604 162.964 197.938 156.629C204.273 150.294 209.298 142.774 212.726 134.497C216.154 126.221 217.919 117.35 217.919 108.392L149.701 108.392V176.609Z" fill="black"/>
<path d="M136.436 21.6027C127.478 21.6027 118.607 23.3672 110.33 26.7955C102.054 30.2238 94.5334 35.2487 88.1988 41.5833C81.8642 47.9179 76.8393 55.4382 73.411 63.7148C69.9827 71.9914 68.2181 80.8622 68.2181 89.8208H136.436V21.6027Z" fill="black"/>
<path d="M217.919 0C208.961 -1.06829e-07 200.09 1.76451 191.814 5.19279C183.537 8.62107 176.017 13.646 169.682 19.9806C163.347 26.3152 158.322 33.8355 154.894 42.1121C151.466 50.3887 149.701 102.085 149.701 111.044L217.919 111.044L217.919 0Z" fill="black"/>
<path d="M81.4828 244.827C90.4413 244.827 99.3121 243.063 107.589 239.634C115.865 236.206 123.386 231.181 129.72 224.847C136.055 218.512 141.08 210.992 144.508 202.715C147.936 194.439 149.701 185.568 149.701 176.609H81.4828V244.827Z" fill="black"/>
<path d="M0.000190978 264.913C8.95872 264.913 17.8295 263.149 26.1061 259.721C34.3827 256.292 41.903 251.267 48.2376 244.933C54.5723 238.598 59.5972 231.078 63.0255 222.801C66.4537 214.525 68.2182 165.102 68.2182 156.143L0.000122226 156.144L0.000190978 264.913Z" fill="black"/>
</svg>
