<svg width="568" height="269" viewBox="0 0 568 269" fill="none" xmlns="http://www.w3.org/2000/svg">
<path d="M89.9895 89.2649C97.0901 106.075 103.176 112.885 115.928 112.885V115.928C85.932 115.928 66.369 113.61 58.8337 90.2793C51.1534 66.2241 46.951 62.3115 33.7642 62.3115H31.7354V83.6134C31.7354 98.5392 32.1702 105.495 33.4743 115.928H0C1.3042 105.495 1.73893 98.5392 1.73893 83.6134V32.3151C1.73893 17.3893 1.3042 10.4336 0 0H40.575C69.5571 0 95.3512 4.92696 95.3512 31.1558C95.3512 53.0373 77.5272 59.993 54.7762 61.8768C69.9918 64.4852 82.4541 71.7307 89.9895 89.2649ZM31.7354 3.47785V58.8337H40.1402C53.9067 58.8337 65.2098 53.0373 65.2098 31.1558C65.2098 9.27427 53.9067 3.47785 40.1402 3.47785H31.7354Z" fill="black"/>
<path d="M207.243 115.928H125.948C127.252 105.495 127.832 98.5392 127.832 83.6134V32.3151C127.832 17.3893 127.252 10.4336 125.948 0H210.431L201.011 13.6216C189.274 4.92696 178.695 3.47785 169.711 3.47785H157.683V53.3271H164.639C172.319 53.3271 180.144 53.3271 193.621 51.878V58.2541C180.144 56.8049 172.319 56.8049 164.639 56.8049H157.683V112.451H168.551C184.202 112.451 192.172 111.436 213.184 102.742L207.243 115.928Z" fill="black"/>
<path d="M282.982 41.0097L327.47 100.278C332.397 106.799 335.73 110.422 342.975 115.928H299.502C297.038 110.277 295.299 107.958 289.648 100.278L260.811 62.1666L256.319 67.0936V83.6134C256.319 98.5392 256.753 105.495 258.057 115.928H224.583C225.887 105.495 226.322 98.5392 226.322 83.6134V32.3151C226.322 17.3893 225.887 10.4336 224.583 0H258.057C256.753 10.4336 256.319 17.3893 256.319 32.3151V62.1666L303.559 15.3605C309.791 9.41919 313.413 5.65151 317.326 0H325.731C318.05 5.65151 314.138 9.41919 308.486 15.0707L282.982 41.0097Z" fill="black"/>
<path d="M415.959 0L442.623 97.6697C444.796 105.93 446.535 110.132 449.723 115.928H414.075C413.64 108.248 412.771 105.06 410.742 97.6697L404.511 74.9188H366.689L360.168 99.5536C358.719 105.06 357.415 108.828 356.98 115.928H350.604C354.227 108.393 355.097 105.06 356.546 99.6985L380.166 11.7378C381.325 7.10061 381.76 4.78205 380.311 0H415.959ZM385.383 5.21677L367.704 71.4409H403.497L385.383 5.21677Z" fill="black"/>
<path d="M89.9895 239.318C97.0901 256.127 103.176 262.938 115.928 262.938V265.981C85.932 265.981 66.369 263.663 58.8337 240.332C51.1534 216.277 46.951 212.364 33.7642 212.364H31.7354V233.666C31.7354 248.592 32.1702 255.548 33.4743 265.981H0C1.3042 255.548 1.73893 248.592 1.73893 233.666V182.368C1.73893 167.442 1.3042 160.486 0 150.053H40.575C69.5571 150.053 95.3512 154.98 95.3512 181.208C95.3512 203.09 77.5272 210.046 54.7762 211.929C69.9918 214.538 82.4541 221.783 89.9895 239.318ZM31.7354 153.531V208.886H40.1402C53.9067 208.886 65.2098 203.09 65.2098 181.208C65.2098 159.327 53.9067 153.531 40.1402 153.531H31.7354Z" fill="black"/>
<path d="M171.664 268.879C140.363 268.879 117.322 258.591 117.322 216.712V182.368C117.322 167.442 116.887 160.486 115.583 150.053H149.058C147.753 160.486 147.319 167.442 147.319 182.368V216.712C147.319 250.041 154.129 263.083 177.025 263.083C198.037 263.083 208.471 251.49 208.471 216.712V182.368C208.471 167.442 207.891 160.486 206.732 150.053H213.688C212.528 160.486 211.949 167.442 211.949 182.368V216.712C211.949 254.678 199.776 268.879 171.664 268.879Z" fill="black"/>
<path d="M284.209 150.053L310.873 247.722C313.046 255.982 314.785 260.185 317.973 265.981H282.325C281.891 258.301 281.021 255.113 278.992 247.722L272.761 224.971H234.94L228.419 249.606C226.97 255.113 225.665 258.88 225.231 265.981H218.855C222.477 258.446 223.347 255.113 224.796 249.751L248.416 161.79C249.576 157.153 250.01 154.835 248.561 150.053H284.209ZM253.633 155.269L235.954 221.494H271.747L253.633 155.269Z" fill="black"/>
<path d="M336.957 265.981H330.436C331.74 255.548 332.175 248.592 332.175 233.666V182.368C332.175 167.442 331.74 160.486 330.436 150.053H366.663L423.034 258.591L424.048 258.736V182.368C424.048 167.442 423.468 160.486 422.309 150.053H428.83C427.526 160.486 427.091 167.442 427.091 182.368V233.666C427.091 248.592 427.526 255.548 428.83 265.981H392.602L336.232 157.443L335.218 157.298V233.666C335.218 248.592 335.653 255.548 336.957 265.981Z" fill="black"/>
<path d="M502.774 268.879C467.126 268.879 442.057 244.245 442.057 206.568C442.057 168.891 470.604 147.154 504.948 147.154C531.032 147.154 548.421 160.921 558.42 180.194L531.032 187.874C528.133 167.152 520.743 150.632 504.948 150.632C484.66 150.632 474.227 174.687 474.227 204.539C474.227 235.405 486.689 260.04 512.483 260.04C535.089 260.04 548.856 240.912 550.45 211.205H543.204C534.22 211.205 523.641 212.654 512.048 221.349L502.484 207.727H567.404V211.205H555.956V233.811C555.956 244.969 556.536 255.113 557.985 265.981H548.421C549.87 255.113 550.45 244.969 550.45 233.811V229.753C544.798 253.374 530.452 268.879 502.774 268.879Z" fill="black"/>
</svg>
